<svg width="78" height="78" viewBox="0 0 78 78" fill="none" xmlns="http://www.w3.org/2000/svg">
<path d="M0 52.743V2.22074C0 1.46174 0.681976 0.771729 1.44663 0.771729H9.34811C10.1059 0.771729 10.719 1.45484 10.719 2.22074V52.743C10.719 53.502 10.1128 54.1161 9.34811 54.1161H1.44663C0.681976 54.1092 0 53.502 0 52.743Z" fill="#016699"/>
<path d="M29.1664 9.82455C34.2572 3.66279 41.2425 0.392154 48.4619 0.0057499C49.3712 -0.0701508 50.0601 0.612956 50.1359 1.60657V8.22373C50.1359 9.21044 49.6055 9.74174 48.5377 9.82455C43.9773 10.204 39.6512 12.488 36.7647 16.1381C30.5373 23.5971 31.5223 34.7062 38.8176 40.8679C46.2644 47.1056 57.2038 46.1948 63.2798 38.7358C67.8401 33.2572 68.6737 25.6464 65.4842 19.3328C64.8022 17.8838 64.9537 16.8971 66.0146 16.0622C66.8482 15.6068 69.583 13.6265 70.575 12.9434C71.6359 12.2603 72.931 12.6398 73.5372 13.7024C79.1585 23.673 78.1733 36.2242 70.8781 45.0494C61.7642 56.6898 43.5295 58.2906 32.6659 48.5477C21.1891 38.8186 19.6667 21.3891 29.1664 9.82455Z" fill="#016699"/>
<path d="M15.2249 69.7016C15.2249 69.7016 16.7473 69.1703 17.7324 68.8667C18.6417 68.5631 22.6717 67.3418 26.1643 67.0382C29.5054 66.7346 34.5204 66.431 34.5204 66.431C36.8764 66.2792 40.6721 66.2033 42.9523 66.3551C42.9523 66.3551 47.1338 66.5828 51.3085 67.0382C55.4831 67.5695 59.8919 68.9426 59.8919 68.9426L62.1721 69.7016C63.1572 70.0052 63.9219 71.0678 63.9219 72.0614L63.9219 75.8634C63.9219 76.8501 63.0883 77.4642 62.1721 77.2296L59.8919 76.6224C51.46 74.4902 48.8767 73.7312 42.9523 73.5794C40.6721 73.5794 36.8764 73.6553 34.5204 73.7312C34.5204 73.7312 30.1116 74.0348 26.1643 74.4902C22.217 74.9456 17.5808 76.3947 17.5808 76.3947L15.2249 77.1537C14.3156 77.3814 13.5509 76.8501 13.5509 75.8565L13.5509 72.0545C13.5578 71.0678 14.3156 70.0052 15.2249 69.7016Z" fill="#016699"/>
<path d="M61.8122 27.5785C61.8122 34.1128 56.5216 39.4121 49.9979 39.4121C43.4742 39.4121 38.1836 34.1128 38.1836 27.5785C38.1836 21.0441 43.4742 15.7449 49.9979 15.7449C56.5216 15.7449 61.8122 21.0441 61.8122 27.5785Z" fill="#6AABDD"/>
</svg>
