<svg xmlns="http://www.w3.org/2000/svg" xml:space="preserve" width="512" height="512" style="shape-rendering:geometricPrecision;text-rendering:geometricPrecision;image-rendering:optimizeQuality;fill-rule:evenodd;clip-rule:evenodd"><defs><style>.fil0{fill:#016699}</style></defs><g id="Camada_x0020_1"><g id="_2115531337696"><path class="fil0" d="M419.61 479.56c-49.33 21-102.45 32.44-157.8 32.44-57.21 0-112.02-12.21-162.72-34.57-3.98-1.75-6.49-6.07-6.49-11.14v-35.62c0-4.05 1.54-7.54 4.35-9.81 2.8-2.28 6.08-2.71 9.23-1.22 48.16 22.83 100.67 35.39 155.63 35.39 53.17 0 104.05-11.76 150.92-33.2 3.14-1.44 6.4-.98 9.17 1.31 2.78 2.28 4.3 5.75 4.3 9.77v35.46c0 5.12-2.56 9.47-6.59 11.19z"/><ellipse cx="334.84" cy="178.05" rx="77.87" ry="77.8" style="fill:#6aabdd"/><path d="M9.93 0h55.6c5.47 0 9.93 4.46 9.93 9.92V343.2c0 5.46-4.46 9.92-9.93 9.92H9.93c-5.47 0-9.93-4.46-9.93-9.92V9.92C0 4.46 4.46 0 9.93 0z" style="fill:#016699"/><path class="fil0" d="M488.58 90.06c14.89 25.92 23.42 55.96 23.42 87.99 0 97.74-79.32 176.98-177.16 176.98s-177.16-79.24-177.16-176.98c0-93.97 73.31-170.82 165.89-176.63 2.82-.18 5.31.72 7.38 2.64 2.07 1.92 3.14 4.33 3.17 7.15l.45 40.71a9.903 9.903 0 0 1-9.14 9.99c-60 4.79-107.21 54.96-107.21 116.14 0 64.34 52.22 116.5 116.62 116.5 64.41 0 116.62-52.16 116.62-116.5 0-19.74-4.92-38.32-13.58-54.6a9.879 9.879 0 0 1 2.99-12.73l33.33-23.79c2.36-1.69 5.05-2.24 7.89-1.62 2.83.62 5.04 2.23 6.49 4.75z"/></g></g></svg>